<?xml version="1.0" encoding="UTF-8"?>
<svg version="1.1" xmlns="http://www.w3.org/2000/svg" width="360" height="360">
<path d="M0 0 C25.68147326 22.85877944 39.65046195 54.83938112 42.12084961 88.81616211 C43.93254613 123.73869707 31.31428643 156.55621967 8.54760742 182.74511719 C-13.39551302 207.06036838 -45.37708224 222.49968953 -78.04760742 224.49926758 C-116.18888294 226.26371913 -149.3997735 213.50096915 -177.50952148 187.92651367 C-201.82190315 165.36616713 -214.63666144 132.62718346 -216.33276367 99.93286133 C-217.42566391 64.35895871 -203.92061906 30.87859678 -179.68676758 5.04003906 C-130.65105104 -45.11336839 -51.85906033 -45.0975911 0 0 Z " fill="#D8E5FE" transform="translate(267.047607421875,84.500732421875)"/>
<path d="M0 0 C0.96992386 -0.00671722 1.93984772 -0.01343445 2.93916321 -0.02035522 C6.13755453 -0.03931287 9.33573571 -0.04325851 12.53417969 -0.04541016 C14.7660938 -0.0518403 16.99800708 -0.05856883 19.22991943 -0.06558228 C23.90704298 -0.07754995 28.5840927 -0.08126368 33.26123047 -0.08007812 C39.23745663 -0.07987512 45.21320625 -0.10716047 51.18931961 -0.14162254 C55.79974517 -0.16392543 60.41005673 -0.1679146 65.0205307 -0.16685867 C67.22282298 -0.16921016 69.42511861 -0.17800805 71.62735748 -0.19352341 C74.71674879 -0.21324879 77.80512147 -0.20731899 80.89453125 -0.1953125 C81.79357681 -0.20655151 82.69262238 -0.21779053 83.61891174 -0.22937012 C93.33297506 -0.13404838 102.21084587 3.48359537 109.20605469 10.29052734 C116.38510339 18.984681 118.74415122 26.107908 118.58886719 37.38818359 C117.76706831 45.7655007 114.30204859 53.47162407 108.20605469 59.29052734 C99.62537873 66.0779761 91.31070901 68.7555745 80.4387207 68.67871094 C79.50737305 68.6839679 78.57602539 68.68922485 77.61645508 68.69464111 C74.56411537 68.70775174 71.51230516 68.69913402 68.45996094 68.68896484 C66.32201539 68.69098831 64.18407052 68.69390203 62.04612732 68.69766235 C57.57519938 68.70207377 53.10445182 68.69569336 48.63354492 68.68164062 C42.9231328 68.66456002 37.2131441 68.67439055 31.50274754 68.69235802 C27.09047804 68.70323666 22.67830769 68.69973063 18.26603508 68.69197464 C16.16144701 68.68998337 14.05684972 68.6923939 11.95227242 68.6994133 C9.00220272 68.70709396 6.05280341 68.69533095 3.1027832 68.67871094 C2.24585373 68.68478363 1.38892426 68.69085632 0.50602722 68.69711304 C-10.05055734 68.58779525 -18.8924447 65.34592599 -26.79394531 58.29052734 C-29.20156645 55.46727477 -31.05941351 52.56495702 -32.79394531 49.29052734 C-33.13296875 48.67693359 -33.47199219 48.06333984 -33.82128906 47.43115234 C-37.28173246 39.96807627 -36.9328516 30.271826 -34.73144531 22.47802734 C-31.0975296 13.41006174 -24.21332434 6.9882025 -15.79394531 2.29052734 C-10.47572307 0.05535928 -5.66915236 -0.00566434 0 0 Z " fill="#FEFEFE" transform="translate(138.7939453125,192.70947265625)"/>
<path d="M0 0 C10.37812507 6.12185007 19.35240789 15.21464269 22.578125 27.13671875 C24.78352184 42.10482877 23.43553585 54.93255885 14.3125 67.3125 C5.89789917 77.09290358 -4.14510859 82.07525272 -16.96484375 83.4140625 C-25.86486857 83.88114091 -33.13515644 82.32853434 -41 78 C-42.21623047 77.34837891 -42.21623047 77.34837891 -43.45703125 76.68359375 C-52.2342327 71.43521605 -58.51076648 63.10878055 -62.15625 53.61328125 C-63.23912402 48.97597352 -63.46501259 44.56291523 -63.5 39.8125 C-63.50644531 38.98121582 -63.51289063 38.14993164 -63.51953125 37.29345703 C-63.28597083 25.97251414 -58.70294294 16.29453454 -51.1171875 7.921875 C-37.44055883 -4.81344724 -16.85879737 -8.41754299 0 0 Z " fill="#FEFEFE" transform="translate(200,98)"/>
</svg>
