<svg width="64" height="64" viewBox="0 0 64 64" fill="none" xmlns="http://www.w3.org/2000/svg">
<path d="M11.7333 42.8375V21.5042C11.7333 16.7913 15.5538 12.9709 20.2667 12.9709H41.6C46.3128 12.9709 50.1333 16.7913 50.1333 21.5042V42.8375C50.1333 47.5503 46.3128 51.3708 41.6 51.3708H20.2667C15.5538 51.3708 11.7333 47.5503 11.7333 42.8375Z" fill="#5736FB" stroke="white" stroke-width="3.2" stroke-linecap="round" stroke-linejoin="round"/>
<path d="M22.4 29.0989L28.5227 35.6266C28.8267 35.9646 29.1985 36.2349 29.6139 36.4198C30.029 36.6048 30.4787 36.7006 30.9333 36.7006C31.388 36.7006 31.8377 36.6048 32.2528 36.4198C32.6682 36.2349 33.04 35.9646 33.344 35.6266L39.4667 29.0989" fill="#5736FB"/>
<path d="M22.4 29.0989L28.5227 35.6266C28.8267 35.9646 29.1985 36.2349 29.6139 36.4198C30.029 36.6048 30.4787 36.7006 30.9333 36.7006C31.388 36.7006 31.8377 36.6048 32.2528 36.4198C32.6682 36.2349 33.04 35.9646 33.344 35.6266L39.4667 29.0989" stroke="white" stroke-width="3.2" stroke-linecap="round" stroke-linejoin="round"/>
</svg>
