<svg width="64" height="64" viewBox="0 0 64 64" fill="none" xmlns="http://www.w3.org/2000/svg">
<path d="M11.7333 21.1625V42.4958C11.7333 47.2087 15.5538 51.0291 20.2667 51.0291H41.6C46.3128 51.0291 50.1333 47.2087 50.1333 42.4958V21.1625C50.1333 16.4497 46.3128 12.6292 41.6 12.6292H20.2667C15.5538 12.6292 11.7333 16.4497 11.7333 21.1625Z" fill="#5736FB" stroke="white" stroke-width="3.2" stroke-linecap="round" stroke-linejoin="round"/>
<path d="M22.4 34.9011L28.5227 28.3734C28.8267 28.0354 29.1985 27.7651 29.6139 27.5802C30.029 27.3952 30.4787 27.2994 30.9333 27.2994C31.3879 27.2994 31.8376 27.3952 32.2528 27.5802C32.6682 27.7651 33.04 28.0354 33.344 28.3734L39.4667 34.9011" fill="#5736FB"/>
<path d="M22.4 34.9011L28.5227 28.3734C28.8267 28.0354 29.1985 27.7651 29.6139 27.5802C30.029 27.3952 30.4787 27.2994 30.9333 27.2994C31.3879 27.2994 31.8376 27.3952 32.2528 27.5802C32.6682 27.7651 33.04 28.0354 33.344 28.3734L39.4667 34.9011" stroke="white" stroke-width="3.2" stroke-linecap="round" stroke-linejoin="round"/>
</svg>
